<?xml version="1.0" standalone="no"?>
<!DOCTYPE svg PUBLIC "-//W3C//DTD SVG 20010904//EN"
 "http://www.w3.org/TR/2001/REC-SVG-20010904/DTD/svg10.dtd">
<svg version="1.0" xmlns="http://www.w3.org/2000/svg"
 width="1200.000000pt" height="1200.000000pt" viewBox="0 0 1200.000000 1200.000000"
 preserveAspectRatio="xMidYMid meet">
<metadata>
Created by potrace 1.11, written by Peter Selinger 2001-2013
</metadata>
<g transform="translate(0.000000,1200.000000) scale(0.100000,-0.100000)"
fill="#000000" stroke="none">
<path d="M5805 10664 c-22 -2 -92 -9 -155 -15 -395 -37 -857 -175 -1180 -351
-426 -233 -748 -475 -958 -721 -414 -485 -632 -1004 -848 -2022 -24 -115 -46
-220 -49 -231 -3 -14 -15 -24 -35 -27 -83 -17 -174 -291 -225 -677 -80 -616
-7 -1527 157 -1953 28 -74 89 -157 116 -157 20 0 75 54 88 87 16 37 18 187 4
248 -7 33 -6 41 8 49 47 27 62 54 62 115 0 71 6 91 30 91 36 0 80 -147 80
-273 0 -97 26 -198 64 -255 25 -35 50 -56 101 -82 l68 -35 166 1 c234 2 337
32 410 121 82 99 94 224 95 943 0 923 -58 1503 -169 1696 -20 34 -34 44 -92
67 -111 42 -152 50 -263 50 -139 0 -210 -18 -295 -77 -82 -56 -101 -56 -98 -1
7 101 111 426 215 670 280 654 672 1229 993 1454 53 38 64 41 122 41 35 0 79
7 98 14 19 8 84 62 145 120 338 323 787 479 1375 479 457 -1 919 -101 1268
-274 134 -66 177 -98 287 -209 113 -114 194 -159 335 -186 l89 -18 136 -135
c147 -147 241 -265 372 -466 160 -244 356 -623 558 -1075 92 -207 139 -307
171 -363 15 -27 19 -41 11 -49 -19 -19 -123 -24 -197 -11 -90 17 -265 15 -332
-3 -57 -16 -110 -60 -139 -116 -19 -36 -76 -361 -98 -558 -39 -344 -60 -761
-76 -1490 -9 -438 -9 -446 11 -487 51 -107 188 -161 458 -183 109 -9 153 -9
191 0 98 23 161 93 202 223 14 46 21 107 27 238 6 141 10 182 24 203 22 33 37
33 67 1 22 -23 23 -29 12 -57 -11 -29 -9 -38 17 -88 38 -73 46 -130 28 -206
-13 -56 -12 -64 4 -97 36 -70 106 -97 156 -62 21 15 67 120 104 241 50 162
103 471 131 759 21 223 18 970 -5 1154 -42 335 -100 517 -172 541 -68 22 -81
48 -165 336 -138 472 -245 781 -372 1078 -257 599 -585 1037 -1018 1359 -99
73 -431 277 -542 333 -281 141 -603 233 -978 280 -111 14 -514 26 -595 18z"/>
<path d="M5567 6640 c-54 -16 -57 -24 -57 -146 0 -65 -4 -115 -10 -119 -6 -3
-152 11 -326 31 -231 28 -320 35 -332 27 -33 -20 -39 -206 -8 -248 10 -14 74
-24 332 -56 175 -22 325 -41 332 -44 18 -7 18 -503 -1 -511 -7 -2 -143 11
-303 31 -321 39 -347 40 -362 23 -25 -33 -24 -207 2 -243 9 -12 87 -25 335
-55 178 -22 327 -43 332 -46 5 -3 9 -65 9 -138 0 -100 3 -136 14 -145 20 -17
95 -27 145 -20 70 9 81 30 81 160 l0 109 25 0 c24 0 483 -54 558 -66 l37 -6 0
-134 0 -134 27 -17 c19 -13 47 -18 96 -18 63 0 71 3 93 28 22 26 24 36 24 138
l0 111 38 -6 c89 -14 535 -66 562 -66 42 0 52 32 48 148 -3 81 -6 96 -24 111
-15 12 -89 25 -295 49 -151 18 -286 35 -301 38 l-28 6 0 259 0 260 33 -6 c17
-3 156 -21 307 -41 l275 -35 17 22 c14 17 18 40 18 109 0 96 -9 134 -35 144
-10 3 -142 22 -294 41 -152 20 -286 38 -298 41 -22 4 -23 8 -23 133 0 108 -3
132 -17 150 -34 41 -145 49 -200 15 -22 -14 -23 -21 -23 -139 0 -123 0 -125
-22 -125 -13 0 -147 16 -298 35 -151 19 -281 35 -287 35 -10 0 -13 32 -13 128
0 145 -7 165 -68 182 -43 12 -76 12 -115 0z m468 -620 c138 -16 269 -32 293
-35 l42 -6 0 -255 c0 -195 -3 -256 -12 -259 -7 -3 -146 12 -308 33 l-295 37
-3 258 c-2 240 -1 257 15 257 10 0 131 -13 268 -30z"/>
<path d="M9360 2500 l0 -710 40 0 40 0 0 85 c0 50 4 85 10 85 6 0 10 -4 10 -9
0 -6 25 -37 55 -69 65 -70 127 -101 223 -109 165 -14 316 76 396 235 53 105
72 326 41 461 -30 124 -101 218 -204 268 -50 25 -67 27 -156 27 -80 0 -112 -5
-158 -23 -65 -26 -167 -113 -187 -161 -7 -16 -16 -30 -21 -30 -5 0 -9 147 -9
330 l0 330 -40 0 -40 0 0 -710z m557 175 c119 -50 193 -194 193 -381 0 -197
-79 -358 -208 -421 -48 -23 -69 -28 -132 -27 -96 1 -163 29 -224 94 -78 84
-106 167 -106 320 0 234 101 394 273 430 56 12 157 5 204 -15z"/>
<path d="M840 2451 l0 -671 269 0 c148 0 304 5 347 11 296 41 513 242 564 520
19 100 14 281 -9 370 -56 219 -187 348 -416 411 -73 20 -108 22 -417 26 l-338
3 0 -670z m573 414 c81 -17 163 -61 208 -112 76 -88 111 -227 91 -366 -22
-153 -97 -264 -218 -323 -55 -27 -68 -29 -201 -33 l-143 -3 0 426 0 426 98 0
c53 0 128 -7 165 -15z"/>
<path d="M4441 2458 c-132 -365 -241 -666 -241 -671 0 -4 73 -6 162 -5 l162 3
46 145 46 145 240 3 240 2 48 -150 47 -150 165 0 c99 0 164 4 162 9 -1 6 -109
307 -238 670 l-235 661 -181 0 -181 0 -242 -662z m506 104 c42 -133 74 -245
71 -247 -3 -3 -79 -4 -170 -3 l-164 3 73 230 c40 127 78 255 84 285 l12 55 9
-40 c5 -22 44 -149 85 -283z"/>
<path d="M10697 2760 c-135 -34 -246 -145 -299 -299 -32 -91 -32 -303 -1 -398
26 -80 73 -152 130 -203 121 -106 335 -117 513 -27 l65 34 3 47 3 48 -33 -25
c-126 -94 -299 -120 -422 -64 -72 34 -108 67 -145 137 -30 56 -60 173 -61 238
l0 22 355 0 355 0 0 64 c0 191 -83 350 -212 406 -59 25 -188 36 -251 20z m252
-108 c67 -50 112 -142 126 -254 l7 -58 -312 0 -313 0 6 44 c16 114 93 232 181
278 82 43 241 38 305 -10z"/>
<path d="M2521 2745 c-161 -45 -293 -185 -331 -350 -16 -67 -15 -231 0 -297
38 -161 148 -275 309 -320 123 -34 348 -19 464 31 l47 20 0 106 c0 58 -2 105
-4 105 -3 0 -20 -9 -38 -20 -94 -55 -308 -67 -395 -22 -51 27 -93 85 -100 141
l-6 41 313 0 312 0 -4 128 c-4 95 -10 141 -26 185 -40 111 -126 201 -229 241
-66 25 -239 31 -312 11z m235 -215 c35 -33 51 -66 59 -123 l7 -47 -176 0
c-170 0 -176 1 -176 20 0 53 47 125 105 162 44 28 144 21 181 -12z"/>
<path d="M6153 2746 c-60 -20 -107 -51 -153 -103 l-40 -46 0 72 0 71 -150 0
-150 0 0 -700 0 -700 150 0 150 0 0 275 0 276 32 -36 c17 -20 54 -48 82 -63
46 -24 61 -27 156 -27 99 0 110 2 171 32 132 65 214 188 245 365 34 197 -19
417 -123 508 -68 60 -129 83 -233 87 -62 2 -109 -2 -137 -11z m56 -217 c38 -8
58 -20 85 -49 44 -48 56 -92 56 -201 0 -189 -72 -292 -205 -293 -70 0 -123 29
-160 89 -29 47 -30 52 -30 174 0 110 3 131 22 166 28 53 72 93 119 110 48 17
51 17 113 4z"/>
<path d="M7343 2746 c-60 -20 -107 -51 -153 -103 l-40 -46 0 72 0 71 -150 0
-150 0 0 -700 0 -700 150 0 150 0 0 275 0 276 32 -36 c17 -20 54 -48 82 -63
46 -24 61 -27 156 -27 95 0 111 3 167 29 41 18 81 48 116 85 101 105 140 218
141 401 1 225 -64 364 -205 440 -56 30 -73 34 -158 37 -63 2 -110 -2 -138 -11z
m107 -235 c128 -65 124 -411 -7 -494 -114 -74 -251 -22 -289 110 -23 78 -16
232 14 288 57 112 173 151 282 96z"/>
<path d="M8255 2749 c-170 -35 -275 -147 -275 -293 0 -77 17 -123 63 -173 47
-51 106 -84 227 -125 112 -37 160 -70 160 -106 0 -64 -52 -92 -172 -92 -70 0
-205 36 -243 64 -11 9 -23 16 -27 16 -5 0 -8 -54 -8 -119 l0 -119 73 -17 c96
-23 266 -30 354 -15 132 22 242 94 284 185 21 45 25 148 8 208 -22 79 -123
155 -269 202 -159 51 -204 116 -120 173 32 22 42 24 125 19 81 -4 112 -12 208
-52 16 -7 17 0 15 106 l-3 114 -50 13 c-64 17 -285 24 -350 11z"/>
<path d="M3155 2721 c3 -10 79 -225 169 -477 l163 -459 169 -3 169 -2 174 467
c96 258 176 474 179 481 3 9 -31 12 -150 12 l-154 0 -96 -342 c-53 -189 -101
-361 -106 -383 -9 -37 -10 -37 -11 -10 -1 33 -34 160 -132 507 l-64 228 -158
0 c-150 0 -158 -1 -152 -19z"/>
<path d="M8941 1894 c-24 -30 -26 -46 -10 -77 16 -30 28 -37 66 -37 41 0 77
42 68 80 -14 60 -88 80 -124 34z"/>
</g>
</svg>
